%TF.GenerationSoftware,KiCad,Pcbnew,9.0.6*%
%TF.CreationDate,2026-05-28T20:55:30-07:00*%
%TF.ProjectId,power_board_v01,706f7765-725f-4626-9f61-72645f763031,rev?*%
%TF.SameCoordinates,Original*%
%TF.FileFunction,Copper,L1,Top*%
%TF.FilePolarity,Positive*%
%FSLAX46Y46*%
G04 Gerber Fmt 4.6, Leading zero omitted, Abs format (unit mm)*
G04 Created by KiCad (PCBNEW 9.0.6) date 2026-05-28 20:55:30*
%MOMM*%
%LPD*%
G01*
G04 APERTURE LIST*
G04 Aperture macros list*
%AMRoundRect*
0 Rectangle with rounded corners*
0 $1 Rounding radius*
0 $2 $3 $4 $5 $6 $7 $8 $9 X,Y pos of 4 corners*
0 Add a 4 corners polygon primitive as box body*
4,1,4,$2,$3,$4,$5,$6,$7,$8,$9,$2,$3,0*
0 Add four circle primitives for the rounded corners*
1,1,$1+$1,$2,$3*
1,1,$1+$1,$4,$5*
1,1,$1+$1,$6,$7*
1,1,$1+$1,$8,$9*
0 Add four rect primitives between the rounded corners*
20,1,$1+$1,$2,$3,$4,$5,0*
20,1,$1+$1,$4,$5,$6,$7,0*
20,1,$1+$1,$6,$7,$8,$9,0*
20,1,$1+$1,$8,$9,$2,$3,0*%
G04 Aperture macros list end*
%TA.AperFunction,ComponentPad*%
%ADD10RoundRect,0.250000X-1.050000X-1.050000X1.050000X-1.050000X1.050000X1.050000X-1.050000X1.050000X0*%
%TD*%
%TA.AperFunction,ComponentPad*%
%ADD11RoundRect,0.250000X-1.325000X1.325000X-1.325000X-1.325000X1.325000X-1.325000X1.325000X1.325000X0*%
%TD*%
%TA.AperFunction,ComponentPad*%
%ADD12C,3.150000*%
%TD*%
%TA.AperFunction,ComponentPad*%
%ADD13RoundRect,0.250000X-0.845000X0.620000X-0.845000X-0.620000X0.845000X-0.620000X0.845000X0.620000X0*%
%TD*%
%TA.AperFunction,ComponentPad*%
%ADD14O,2.190000X1.740000*%
%TD*%
%TA.AperFunction,SMDPad,CuDef*%
%ADD15RoundRect,0.200000X-0.200000X-0.275000X0.200000X-0.275000X0.200000X0.275000X-0.200000X0.275000X0*%
%TD*%
%TA.AperFunction,SMDPad,CuDef*%
%ADD16RoundRect,0.250000X0.325000X1.100000X-0.325000X1.100000X-0.325000X-1.100000X0.325000X-1.100000X0*%
%TD*%
%TA.AperFunction,ComponentPad*%
%ADD17C,1.400000*%
%TD*%
%TA.AperFunction,ComponentPad*%
%ADD18RoundRect,0.770000X-0.980000X-0.980000X0.980000X-0.980000X0.980000X0.980000X-0.980000X0.980000X0*%
%TD*%
%TA.AperFunction,ComponentPad*%
%ADD19C,3.500000*%
%TD*%
%TA.AperFunction,ComponentPad*%
%ADD20RoundRect,0.770000X0.980000X0.980000X-0.980000X0.980000X-0.980000X-0.980000X0.980000X-0.980000X0*%
%TD*%
%TA.AperFunction,SMDPad,CuDef*%
%ADD21RoundRect,0.200000X-2.100000X-0.200000X2.100000X-0.200000X2.100000X0.200000X-2.100000X0.200000X0*%
%TD*%
%TA.AperFunction,SMDPad,CuDef*%
%ADD22RoundRect,0.250002X-4.449998X-5.149998X4.449998X-5.149998X4.449998X5.149998X-4.449998X5.149998X0*%
%TD*%
%TA.AperFunction,ViaPad*%
%ADD23C,0.600000*%
%TD*%
%TA.AperFunction,Conductor*%
%ADD24C,0.250000*%
%TD*%
G04 APERTURE END LIST*
D10*
%TO.P,P3,1,Pin_1*%
%TO.N,/PHASE_C*%
X159500000Y-102000000D03*
%TD*%
%TO.P,P2,1,Pin_1*%
%TO.N,/PHASE_B*%
X159500000Y-87500000D03*
%TD*%
%TO.P,P1,1,Pin_1*%
%TO.N,/PHASE_A*%
X159500000Y-73500000D03*
%TD*%
D11*
%TO.P,J8,1,Pin_1*%
%TO.N,GND*%
X134500000Y-85500000D03*
D12*
%TO.P,J8,2,Pin_2*%
%TO.N,+24V*%
X134500000Y-91500000D03*
%TD*%
D13*
%TO.P,J2,1,Pin_1*%
%TO.N,/IS_A*%
X136000000Y-98960000D03*
D14*
%TO.P,J2,2,Pin_2*%
%TO.N,/IS_B*%
X136000000Y-101500000D03*
%TO.P,J2,3,Pin_3*%
%TO.N,/IS_C*%
X136000000Y-104040000D03*
%TD*%
D15*
%TO.P,R3,1*%
%TO.N,Net-(Q3-SR)*%
X158675000Y-109000000D03*
%TO.P,R3,2*%
%TO.N,GND*%
X160325000Y-109000000D03*
%TD*%
%TO.P,R2,1*%
%TO.N,Net-(Q2-SR)*%
X158675000Y-95000000D03*
%TO.P,R2,2*%
%TO.N,GND*%
X160325000Y-95000000D03*
%TD*%
%TO.P,R1,1*%
%TO.N,Net-(Q1-SR)*%
X158675000Y-80500000D03*
%TO.P,R1,2*%
%TO.N,GND*%
X160325000Y-80500000D03*
%TD*%
D13*
%TO.P,J1,1,Pin_1*%
%TO.N,/IN_A*%
X136000000Y-66380000D03*
D14*
%TO.P,J1,2,Pin_2*%
%TO.N,/INH_A*%
X136000000Y-68920000D03*
%TO.P,J1,3,Pin_3*%
%TO.N,/IN_B*%
X136000000Y-71460000D03*
%TO.P,J1,4,Pin_4*%
%TO.N,/INH_B*%
X136000000Y-74000000D03*
%TO.P,J1,5,Pin_5*%
%TO.N,/IN_C*%
X136000000Y-76540000D03*
%TO.P,J1,6,Pin_6*%
%TO.N,/INH_C*%
X136000000Y-79080000D03*
%TD*%
D16*
%TO.P,C7,1*%
%TO.N,+24V*%
X165975000Y-107500000D03*
%TO.P,C7,2*%
%TO.N,GND*%
X163025000Y-107500000D03*
%TD*%
%TO.P,C6,1*%
%TO.N,+24V*%
X165975000Y-101000000D03*
%TO.P,C6,2*%
%TO.N,GND*%
X163025000Y-101000000D03*
%TD*%
%TO.P,C5,1*%
%TO.N,+24V*%
X165975000Y-94500000D03*
%TO.P,C5,2*%
%TO.N,GND*%
X163025000Y-94500000D03*
%TD*%
%TO.P,C4,1*%
%TO.N,+24V*%
X165975000Y-88025000D03*
%TO.P,C4,2*%
%TO.N,GND*%
X163025000Y-88025000D03*
%TD*%
%TO.P,C3,1*%
%TO.N,+24V*%
X165975000Y-81500000D03*
%TO.P,C3,2*%
%TO.N,GND*%
X163025000Y-81500000D03*
%TD*%
%TO.P,C2,1*%
%TO.N,+24V*%
X165975000Y-75025000D03*
%TO.P,C2,2*%
%TO.N,GND*%
X163025000Y-75025000D03*
%TD*%
%TO.P,C1,1*%
%TO.N,+24V*%
X165975000Y-68525000D03*
%TO.P,C1,2*%
%TO.N,GND*%
X163025000Y-68525000D03*
%TD*%
D17*
%TO.P,J7,*%
%TO.N,*%
X143500000Y-60000000D03*
X154500000Y-60000000D03*
D18*
%TO.P,J7,1,Pin_1*%
%TO.N,GND*%
X146500000Y-65000000D03*
D19*
%TO.P,J7,2,Pin_2*%
%TO.N,+24V*%
X151500000Y-65000000D03*
%TD*%
D17*
%TO.P,J6,*%
%TO.N,*%
X155000000Y-117000000D03*
X144000000Y-117000000D03*
D20*
%TO.P,J6,1,Pin_1*%
%TO.N,GND*%
X152000000Y-112000000D03*
D19*
%TO.P,J6,2,Pin_2*%
%TO.N,+24V*%
X147000000Y-112000000D03*
%TD*%
D21*
%TO.P,Q3,1*%
%TO.N,GND*%
X142925000Y-97915000D03*
%TO.P,Q3,2,IN*%
%TO.N,/IN_C*%
X142925000Y-99185000D03*
%TO.P,Q3,3,INH*%
%TO.N,/INH_C*%
X142925000Y-100455000D03*
%TO.P,Q3,4*%
%TO.N,/PHASE_C*%
X142925000Y-101725000D03*
%TO.P,Q3,5,SR*%
%TO.N,Net-(Q3-SR)*%
X142925000Y-102995000D03*
%TO.P,Q3,6,IS*%
%TO.N,/IS_C*%
X142925000Y-104265000D03*
%TO.P,Q3,7*%
%TO.N,+24V*%
X142925000Y-105535000D03*
D22*
%TO.P,Q3,8*%
%TO.N,/PHASE_C*%
X152075000Y-101725000D03*
%TD*%
D21*
%TO.P,Q1,1*%
%TO.N,GND*%
X142925000Y-69915000D03*
%TO.P,Q1,2,IN*%
%TO.N,/IN_A*%
X142925000Y-71185000D03*
%TO.P,Q1,3,INH*%
%TO.N,/INH_A*%
X142925000Y-72455000D03*
%TO.P,Q1,4*%
%TO.N,/PHASE_A*%
X142925000Y-73725000D03*
%TO.P,Q1,5,SR*%
%TO.N,Net-(Q1-SR)*%
X142925000Y-74995000D03*
%TO.P,Q1,6,IS*%
%TO.N,/IS_A*%
X142925000Y-76265000D03*
%TO.P,Q1,7*%
%TO.N,+24V*%
X142925000Y-77535000D03*
D22*
%TO.P,Q1,8*%
%TO.N,/PHASE_A*%
X152075000Y-73725000D03*
%TD*%
D21*
%TO.P,Q2,1*%
%TO.N,GND*%
X142925000Y-83915000D03*
%TO.P,Q2,2,IN*%
%TO.N,/IN_B*%
X142925000Y-85185000D03*
%TO.P,Q2,3,INH*%
%TO.N,/INH_B*%
X142925000Y-86455000D03*
%TO.P,Q2,4*%
%TO.N,/PHASE_B*%
X142925000Y-87725000D03*
%TO.P,Q2,5,SR*%
%TO.N,Net-(Q2-SR)*%
X142925000Y-88995000D03*
%TO.P,Q2,6,IS*%
%TO.N,/IS_B*%
X142925000Y-90265000D03*
%TO.P,Q2,7*%
%TO.N,+24V*%
X142925000Y-91535000D03*
D22*
%TO.P,Q2,8*%
%TO.N,/PHASE_B*%
X152075000Y-87725000D03*
%TD*%
D23*
%TO.N,/PHASE_C*%
X153500000Y-104500000D03*
X151500000Y-104500000D03*
X149500000Y-104500000D03*
X155500000Y-102500000D03*
X153500000Y-102500000D03*
X151500000Y-102500000D03*
X149500000Y-102500000D03*
X155500000Y-100500000D03*
X153500000Y-100500000D03*
X151500000Y-100500000D03*
X149500000Y-100500000D03*
X155500000Y-98500000D03*
X153500000Y-98500000D03*
X151500000Y-98500000D03*
X149500000Y-98500000D03*
%TO.N,/PHASE_A*%
X153000000Y-76500000D03*
X151000000Y-76500000D03*
X149000000Y-76500000D03*
X155000000Y-74500000D03*
X153000000Y-74500000D03*
X151000000Y-74500000D03*
X149000000Y-74500000D03*
X155000000Y-72500000D03*
X153000000Y-72500000D03*
X151000000Y-72500000D03*
X149000000Y-72500000D03*
X155000000Y-70500000D03*
X153000000Y-70500000D03*
X151000000Y-70500000D03*
X149000000Y-70500000D03*
%TO.N,/PHASE_B*%
X153000000Y-90500000D03*
X151000000Y-90500000D03*
X149000000Y-90500000D03*
X155000000Y-88500000D03*
X153000000Y-88500000D03*
X151000000Y-88500000D03*
X149000000Y-88500000D03*
X155000000Y-86500000D03*
X153000000Y-86500000D03*
X151000000Y-86500000D03*
X149000000Y-86500000D03*
X155000000Y-84500000D03*
X153000000Y-84500000D03*
X151000000Y-84500000D03*
X149000000Y-84500000D03*
X155000000Y-90500000D03*
%TO.N,Net-(Q3-SR)*%
X157000000Y-109000000D03*
%TO.N,Net-(Q2-SR)*%
X157000000Y-95000000D03*
%TO.N,/IS_B*%
X138702439Y-90797561D03*
%TO.N,/IS_A*%
X139000000Y-76000000D03*
%TO.N,Net-(Q2-SR)*%
X139505000Y-88995000D03*
%TO.N,/INH_B*%
X139000000Y-86500000D03*
%TO.N,/IN_B*%
X140000000Y-85000000D03*
%TO.N,/IS_C*%
X138500000Y-104500000D03*
%TO.N,Net-(Q3-SR)*%
X139500000Y-103000000D03*
%TO.N,/INH_C*%
X140000000Y-100000000D03*
%TO.N,/IN_C*%
X140000000Y-98500000D03*
%TO.N,/INH_A*%
X139000000Y-71000000D03*
%TO.N,/IN_A*%
X139000000Y-69380000D03*
%TO.N,/PHASE_C*%
X155500000Y-104500000D03*
%TO.N,+24V*%
X144500000Y-107000000D03*
X143000000Y-107000000D03*
X141000000Y-107000000D03*
%TO.N,GND*%
X144500000Y-96500000D03*
X143000000Y-96500000D03*
X141000000Y-96500000D03*
%TO.N,+24V*%
X144500000Y-93000000D03*
X143000000Y-93000000D03*
X141000000Y-93000000D03*
%TO.N,GND*%
X144500000Y-82500000D03*
X143000000Y-82500000D03*
X141000000Y-82500000D03*
%TO.N,+24V*%
X144500000Y-79000000D03*
X143000000Y-79000000D03*
X141500000Y-79000000D03*
%TO.N,GND*%
X144500000Y-68500000D03*
X143000000Y-68500000D03*
X141500000Y-68500000D03*
%TO.N,/PHASE_A*%
X155000000Y-76500000D03*
%TO.N,/PHASE_C*%
X158000000Y-106500000D03*
X161000000Y-106500000D03*
X161000000Y-105000000D03*
X158000000Y-105000000D03*
X161000000Y-99000000D03*
X158000000Y-99000000D03*
X161000000Y-97000000D03*
X158000000Y-97000000D03*
%TO.N,/PHASE_B*%
X161000000Y-92500000D03*
X158000000Y-92500000D03*
X161000000Y-90500000D03*
X158000000Y-90500000D03*
X161000000Y-84500000D03*
X158000000Y-84500000D03*
X161000000Y-83000000D03*
X158000000Y-83000000D03*
%TO.N,/PHASE_A*%
X158000000Y-78500000D03*
X161000000Y-78500000D03*
X161000000Y-76500000D03*
X158000000Y-76500000D03*
X161000000Y-70500000D03*
X158000000Y-70500000D03*
X161000000Y-69000000D03*
X158000000Y-69000000D03*
%TO.N,GND*%
X161000000Y-110000000D03*
X161000000Y-94000000D03*
X161000000Y-81500000D03*
%TO.N,+24V*%
X166000000Y-105000000D03*
X166000000Y-103500000D03*
X166000000Y-98500000D03*
X166000000Y-97000000D03*
X166000000Y-92000000D03*
X166000000Y-90500000D03*
X166000000Y-85500000D03*
X166000000Y-84000000D03*
X166000000Y-79000000D03*
X166000000Y-77500000D03*
X166000000Y-72500000D03*
X166000000Y-71000000D03*
%TO.N,GND*%
X163000000Y-105000000D03*
X163000000Y-103500000D03*
X163000000Y-98500000D03*
X163000000Y-97000000D03*
X163000000Y-92000000D03*
X163000000Y-90500000D03*
X163000000Y-85500000D03*
X163000000Y-84000000D03*
X163000000Y-79000000D03*
X163000000Y-77500000D03*
X163000000Y-72500000D03*
X163000000Y-71000000D03*
%TD*%
D24*
%TO.N,Net-(Q1-SR)*%
X158675000Y-80500000D02*
X140000000Y-80500000D01*
X140000000Y-80500000D02*
X138000000Y-78500000D01*
X138000000Y-78500000D02*
X138000000Y-75000000D01*
X138000000Y-75000000D02*
X142920000Y-75000000D01*
X142920000Y-75000000D02*
X142925000Y-74995000D01*
%TO.N,Net-(Q3-SR)*%
X158675000Y-109000000D02*
X157000000Y-109000000D01*
%TO.N,Net-(Q2-SR)*%
X158675000Y-95000000D02*
X157000000Y-95000000D01*
%TO.N,/IS_B*%
X138754948Y-90745052D02*
X138754948Y-90797561D01*
X139235000Y-90265000D02*
X138754948Y-90745052D01*
X142925000Y-90265000D02*
X139235000Y-90265000D01*
%TO.N,/IS_A*%
X139265000Y-76265000D02*
X139000000Y-76000000D01*
X142925000Y-76265000D02*
X139265000Y-76265000D01*
%TO.N,/INH_B*%
X139000000Y-86500000D02*
X143000000Y-86500000D01*
%TO.N,/IS_C*%
X138735000Y-104265000D02*
X138500000Y-104500000D01*
X142925000Y-104265000D02*
X138735000Y-104265000D01*
%TO.N,/INH_C*%
X140500000Y-100500000D02*
X140000000Y-100000000D01*
%TO.N,/IN_C*%
X140500000Y-99000000D02*
X140000000Y-98500000D01*
%TO.N,/INH_A*%
X139000000Y-71500000D02*
X139000000Y-71000000D01*
X140000000Y-72500000D02*
X139000000Y-71500000D01*
X143000000Y-72500000D02*
X140000000Y-72500000D01*
%TO.N,/IN_A*%
X142925000Y-71185000D02*
X140185000Y-71185000D01*
X140185000Y-71185000D02*
X139000000Y-70000000D01*
X139000000Y-70000000D02*
X139000000Y-69380000D01*
%TO.N,/IS_C*%
X136225000Y-104265000D02*
X136000000Y-104040000D01*
%TO.N,Net-(Q2-SR)*%
X139500000Y-89000000D02*
X139505000Y-88995000D01*
X139505000Y-88995000D02*
X142925000Y-88995000D01*
%TO.N,Net-(Q3-SR)*%
X139500000Y-103000000D02*
X139505000Y-102995000D01*
X139505000Y-102995000D02*
X142925000Y-102995000D01*
%TO.N,/INH_C*%
X140500000Y-100500000D02*
X143000000Y-100500000D01*
%TO.N,/IN_C*%
X140500000Y-99000000D02*
X143000000Y-99000000D01*
%TO.N,/IN_B*%
X140000000Y-85000000D02*
X143000000Y-85000000D01*
X136460000Y-71460000D02*
X136000000Y-71460000D01*
%TD*%
%TA.AperFunction,Conductor*%
%TO.N,/PHASE_A*%
G36*
X161437539Y-68519685D02*
G01*
X161483294Y-68572489D01*
X161494500Y-68624000D01*
X161494500Y-78870500D01*
X161474815Y-78937539D01*
X161422011Y-78983294D01*
X161370500Y-78994500D01*
X161089293Y-78994500D01*
X161071310Y-78994820D01*
X161063665Y-78995093D01*
X161062420Y-78995138D01*
X161062416Y-78995138D01*
X161062394Y-78995139D01*
X161048253Y-78995897D01*
X161044403Y-78996104D01*
X161039514Y-78997167D01*
X161013163Y-79000000D01*
X156500000Y-79000000D01*
X147624000Y-79000000D01*
X147556961Y-78980315D01*
X147511206Y-78927511D01*
X147500000Y-78876000D01*
X147500000Y-68624000D01*
X147519685Y-68556961D01*
X147572489Y-68511206D01*
X147624000Y-68500000D01*
X161370500Y-68500000D01*
X161437539Y-68519685D01*
G37*
%TD.AperFunction*%
%TD*%
%TA.AperFunction,Conductor*%
%TO.N,/PHASE_B*%
G36*
X159594523Y-82501262D02*
G01*
X159597650Y-82501711D01*
X159624000Y-82505500D01*
X159624003Y-82505500D01*
X161370500Y-82505500D01*
X161437539Y-82525185D01*
X161483294Y-82577989D01*
X161494500Y-82629500D01*
X161494500Y-92870500D01*
X161474815Y-92937539D01*
X161422011Y-92983294D01*
X161370500Y-92994500D01*
X159624000Y-92994500D01*
X159623991Y-92994500D01*
X159623990Y-92994501D01*
X159579457Y-92999289D01*
X159566202Y-93000000D01*
X156500000Y-93000000D01*
X147624000Y-93000000D01*
X147556961Y-92980315D01*
X147511206Y-92927511D01*
X147500000Y-92876000D01*
X147500000Y-82624000D01*
X147519685Y-82556961D01*
X147572489Y-82511206D01*
X147624000Y-82500000D01*
X159576877Y-82500000D01*
X159594523Y-82501262D01*
G37*
%TD.AperFunction*%
%TD*%
%TA.AperFunction,Conductor*%
%TO.N,/PHASE_C*%
G36*
X161059835Y-96501262D02*
G01*
X161062962Y-96501711D01*
X161089312Y-96505500D01*
X161089315Y-96505500D01*
X161370500Y-96505500D01*
X161437539Y-96525185D01*
X161483294Y-96577989D01*
X161494500Y-96629500D01*
X161494500Y-106870500D01*
X161474815Y-106937539D01*
X161422011Y-106983294D01*
X161370500Y-106994500D01*
X159624000Y-106994500D01*
X159623991Y-106994500D01*
X159623990Y-106994501D01*
X159579457Y-106999289D01*
X159566202Y-107000000D01*
X156500000Y-107000000D01*
X147624000Y-107000000D01*
X147556961Y-106980315D01*
X147511206Y-106927511D01*
X147500000Y-106876000D01*
X147500000Y-96624000D01*
X147519685Y-96556961D01*
X147572489Y-96511206D01*
X147624000Y-96500000D01*
X161042189Y-96500000D01*
X161059835Y-96501262D01*
G37*
%TD.AperFunction*%
%TD*%
%TA.AperFunction,Conductor*%
%TO.N,GND*%
G36*
X163443039Y-66519685D02*
G01*
X163488794Y-66572489D01*
X163500000Y-66624000D01*
X163500000Y-109376000D01*
X163480315Y-109443039D01*
X163427511Y-109488794D01*
X163376000Y-109500000D01*
X162124000Y-109500000D01*
X162056961Y-109480315D01*
X162011206Y-109427511D01*
X162000000Y-109376000D01*
X162000000Y-66624000D01*
X162019685Y-66556961D01*
X162072489Y-66511206D01*
X162124000Y-66500000D01*
X163376000Y-66500000D01*
X163443039Y-66519685D01*
G37*
%TD.AperFunction*%
%TD*%
%TA.AperFunction,Conductor*%
%TO.N,+24V*%
G36*
X166642539Y-66519685D02*
G01*
X166688294Y-66572489D01*
X166699500Y-66624000D01*
X166699500Y-109376000D01*
X166679815Y-109443039D01*
X166627011Y-109488794D01*
X166575500Y-109500000D01*
X165124000Y-109500000D01*
X165056961Y-109480315D01*
X165011206Y-109427511D01*
X165000000Y-109376000D01*
X165000000Y-66624000D01*
X165019685Y-66556961D01*
X165072489Y-66511206D01*
X165124000Y-66500000D01*
X166575500Y-66500000D01*
X166642539Y-66519685D01*
G37*
%TD.AperFunction*%
%TD*%
%TA.AperFunction,Conductor*%
%TO.N,GND*%
G36*
X161443039Y-79519685D02*
G01*
X161488794Y-79572489D01*
X161500000Y-79624000D01*
X161500000Y-81876000D01*
X161480315Y-81943039D01*
X161427511Y-81988794D01*
X161376000Y-82000000D01*
X159624000Y-82000000D01*
X159556961Y-81980315D01*
X159511206Y-81927511D01*
X159500000Y-81876000D01*
X159500000Y-81434996D01*
X159519685Y-81367957D01*
X159572489Y-81322202D01*
X159641647Y-81312258D01*
X159688151Y-81328880D01*
X159835601Y-81418018D01*
X159835603Y-81418019D01*
X159997894Y-81468590D01*
X159997893Y-81468590D01*
X160068408Y-81474998D01*
X160068426Y-81474999D01*
X160575000Y-81474999D01*
X160581581Y-81474999D01*
X160652102Y-81468591D01*
X160652107Y-81468590D01*
X160814396Y-81418018D01*
X160959877Y-81330072D01*
X161080072Y-81209877D01*
X161168019Y-81064395D01*
X161218590Y-80902106D01*
X161225000Y-80831572D01*
X161225000Y-80750000D01*
X160575000Y-80750000D01*
X160575000Y-81474999D01*
X160068426Y-81474999D01*
X160074999Y-81474998D01*
X160075000Y-81474998D01*
X160075000Y-80624000D01*
X160094685Y-80556961D01*
X160147489Y-80511206D01*
X160199000Y-80500000D01*
X160325000Y-80500000D01*
X160325000Y-80374000D01*
X160344685Y-80306961D01*
X160397489Y-80261206D01*
X160449000Y-80250000D01*
X161224999Y-80250000D01*
X161224999Y-80168417D01*
X161218591Y-80097897D01*
X161218590Y-80097892D01*
X161168018Y-79935603D01*
X161080072Y-79790122D01*
X161001631Y-79711681D01*
X160968146Y-79650358D01*
X160973130Y-79580666D01*
X161015002Y-79524733D01*
X161080466Y-79500316D01*
X161089312Y-79500000D01*
X161376000Y-79500000D01*
X161443039Y-79519685D01*
G37*
%TD.AperFunction*%
%TD*%
%TA.AperFunction,Conductor*%
%TO.N,GND*%
G36*
X161443039Y-93519685D02*
G01*
X161488794Y-93572489D01*
X161500000Y-93624000D01*
X161500000Y-95876000D01*
X161480315Y-95943039D01*
X161427511Y-95988794D01*
X161376000Y-96000000D01*
X161089312Y-96000000D01*
X161022273Y-95980315D01*
X160976518Y-95927511D01*
X160966574Y-95858353D01*
X160995599Y-95794797D01*
X161001631Y-95788319D01*
X161080071Y-95709878D01*
X161080072Y-95709877D01*
X161168019Y-95564395D01*
X161218590Y-95402106D01*
X161225000Y-95331572D01*
X161225000Y-95250000D01*
X160449000Y-95250000D01*
X160381961Y-95230315D01*
X160336206Y-95177511D01*
X160325000Y-95126000D01*
X160325000Y-95000000D01*
X160199000Y-95000000D01*
X160131961Y-94980315D01*
X160086206Y-94927511D01*
X160075000Y-94876000D01*
X160075000Y-94750000D01*
X160575000Y-94750000D01*
X161224999Y-94750000D01*
X161224999Y-94668417D01*
X161218591Y-94597897D01*
X161218590Y-94597892D01*
X161168018Y-94435603D01*
X161080072Y-94290122D01*
X160959877Y-94169927D01*
X160814395Y-94081980D01*
X160814396Y-94081980D01*
X160652105Y-94031409D01*
X160652106Y-94031409D01*
X160581572Y-94025000D01*
X160575000Y-94025000D01*
X160575000Y-94750000D01*
X160075000Y-94750000D01*
X160075000Y-94025000D01*
X160074999Y-94024999D01*
X160068436Y-94025000D01*
X160068417Y-94025001D01*
X159997897Y-94031408D01*
X159997892Y-94031409D01*
X159835603Y-94081981D01*
X159688150Y-94171120D01*
X159620595Y-94188956D01*
X159554122Y-94167438D01*
X159509834Y-94113398D01*
X159500000Y-94065003D01*
X159500000Y-93624000D01*
X159519685Y-93556961D01*
X159572489Y-93511206D01*
X159624000Y-93500000D01*
X161376000Y-93500000D01*
X161443039Y-93519685D01*
G37*
%TD.AperFunction*%
%TD*%
%TA.AperFunction,Conductor*%
%TO.N,GND*%
G36*
X161443039Y-107519685D02*
G01*
X161488794Y-107572489D01*
X161500000Y-107624000D01*
X161500000Y-110376000D01*
X161480315Y-110443039D01*
X161427511Y-110488794D01*
X161376000Y-110500000D01*
X159624000Y-110500000D01*
X159556961Y-110480315D01*
X159511206Y-110427511D01*
X159500000Y-110376000D01*
X159500000Y-109934996D01*
X159519685Y-109867957D01*
X159572489Y-109822202D01*
X159641647Y-109812258D01*
X159688151Y-109828880D01*
X159835601Y-109918018D01*
X159835603Y-109918019D01*
X159997894Y-109968590D01*
X159997893Y-109968590D01*
X160068408Y-109974998D01*
X160068426Y-109974999D01*
X160575000Y-109974999D01*
X160581581Y-109974999D01*
X160652102Y-109968591D01*
X160652107Y-109968590D01*
X160814396Y-109918018D01*
X160959877Y-109830072D01*
X161080072Y-109709877D01*
X161168019Y-109564395D01*
X161218590Y-109402106D01*
X161225000Y-109331572D01*
X161225000Y-109250000D01*
X160575000Y-109250000D01*
X160575000Y-109974999D01*
X160068426Y-109974999D01*
X160074999Y-109974998D01*
X160075000Y-109974998D01*
X160075000Y-108750000D01*
X160575000Y-108750000D01*
X161224999Y-108750000D01*
X161224999Y-108668417D01*
X161218591Y-108597897D01*
X161218590Y-108597892D01*
X161168018Y-108435603D01*
X161080072Y-108290122D01*
X160959877Y-108169927D01*
X160814395Y-108081980D01*
X160814396Y-108081980D01*
X160652105Y-108031409D01*
X160652106Y-108031409D01*
X160581572Y-108025000D01*
X160575000Y-108025000D01*
X160575000Y-108750000D01*
X160075000Y-108750000D01*
X160075000Y-108025000D01*
X160074999Y-108024999D01*
X160068436Y-108025000D01*
X160068417Y-108025001D01*
X159997897Y-108031408D01*
X159997892Y-108031409D01*
X159835603Y-108081981D01*
X159688150Y-108171120D01*
X159620595Y-108188956D01*
X159554122Y-108167438D01*
X159509834Y-108113398D01*
X159500000Y-108065003D01*
X159500000Y-107624000D01*
X159519685Y-107556961D01*
X159572489Y-107511206D01*
X159624000Y-107500000D01*
X161376000Y-107500000D01*
X161443039Y-107519685D01*
G37*
%TD.AperFunction*%
%TD*%
%TA.AperFunction,Conductor*%
%TO.N,GND*%
G36*
X144943039Y-68019685D02*
G01*
X144988794Y-68072489D01*
X145000000Y-68124000D01*
X145000000Y-70160500D01*
X144980315Y-70227539D01*
X144927511Y-70273294D01*
X144876000Y-70284500D01*
X140768384Y-70284500D01*
X140715449Y-70289310D01*
X140697803Y-70290914D01*
X140660888Y-70302417D01*
X140591028Y-70303567D01*
X140531636Y-70266765D01*
X140501569Y-70203696D01*
X140500000Y-70184031D01*
X140500000Y-68124000D01*
X140519685Y-68056961D01*
X140572489Y-68011206D01*
X140624000Y-68000000D01*
X144876000Y-68000000D01*
X144943039Y-68019685D01*
G37*
%TD.AperFunction*%
%TD*%
%TA.AperFunction,Conductor*%
%TO.N,GND*%
G36*
X144943039Y-82019685D02*
G01*
X144988794Y-82072489D01*
X145000000Y-82124000D01*
X145000000Y-83876000D01*
X144980315Y-83943039D01*
X144927511Y-83988794D01*
X144876000Y-84000000D01*
X140624000Y-84000000D01*
X140556961Y-83980315D01*
X140511206Y-83927511D01*
X140500000Y-83876000D01*
X140500000Y-82124000D01*
X140519685Y-82056961D01*
X140572489Y-82011206D01*
X140624000Y-82000000D01*
X144876000Y-82000000D01*
X144943039Y-82019685D01*
G37*
%TD.AperFunction*%
%TD*%
%TA.AperFunction,Conductor*%
%TO.N,GND*%
G36*
X144943039Y-96019685D02*
G01*
X144988794Y-96072489D01*
X145000000Y-96124000D01*
X145000000Y-98160500D01*
X144980315Y-98227539D01*
X144927511Y-98273294D01*
X144876000Y-98284500D01*
X140860046Y-98284500D01*
X140793007Y-98264815D01*
X140747252Y-98212011D01*
X140745485Y-98207952D01*
X140709397Y-98120827D01*
X140709390Y-98120814D01*
X140621789Y-97989711D01*
X140621786Y-97989707D01*
X140536319Y-97904240D01*
X140502834Y-97842917D01*
X140500000Y-97816559D01*
X140500000Y-96124000D01*
X140519685Y-96056961D01*
X140572489Y-96011206D01*
X140624000Y-96000000D01*
X144876000Y-96000000D01*
X144943039Y-96019685D01*
G37*
%TD.AperFunction*%
%TD*%
%TA.AperFunction,Conductor*%
%TO.N,+24V*%
G36*
X140660883Y-77147581D02*
G01*
X140697804Y-77159086D01*
X140768384Y-77165500D01*
X140768387Y-77165500D01*
X144876000Y-77165500D01*
X144943039Y-77185185D01*
X144988794Y-77237989D01*
X145000000Y-77289500D01*
X145000000Y-79376000D01*
X144980315Y-79443039D01*
X144927511Y-79488794D01*
X144876000Y-79500000D01*
X140624000Y-79500000D01*
X140556961Y-79480315D01*
X140511206Y-79427511D01*
X140500000Y-79376000D01*
X140500000Y-77265968D01*
X140519685Y-77198929D01*
X140572489Y-77153174D01*
X140641647Y-77143230D01*
X140660883Y-77147581D01*
G37*
%TD.AperFunction*%
%TD*%
%TA.AperFunction,Conductor*%
%TO.N,+24V*%
G36*
X140660883Y-91147581D02*
G01*
X140697804Y-91159086D01*
X140768384Y-91165500D01*
X140768387Y-91165500D01*
X144876000Y-91165500D01*
X144943039Y-91185185D01*
X144988794Y-91237989D01*
X145000000Y-91289500D01*
X145000000Y-93376000D01*
X144980315Y-93443039D01*
X144927511Y-93488794D01*
X144876000Y-93500000D01*
X140624000Y-93500000D01*
X140556961Y-93480315D01*
X140511206Y-93427511D01*
X140500000Y-93376000D01*
X140500000Y-91265968D01*
X140519685Y-91198929D01*
X140572489Y-91153174D01*
X140641647Y-91143230D01*
X140660883Y-91147581D01*
G37*
%TD.AperFunction*%
%TD*%
%TA.AperFunction,Conductor*%
%TO.N,+24V*%
G36*
X140660883Y-105147581D02*
G01*
X140697804Y-105159086D01*
X140768384Y-105165500D01*
X140768387Y-105165500D01*
X144876000Y-105165500D01*
X144943039Y-105185185D01*
X144988794Y-105237989D01*
X145000000Y-105289500D01*
X145000000Y-107376000D01*
X144980315Y-107443039D01*
X144927511Y-107488794D01*
X144876000Y-107500000D01*
X140624000Y-107500000D01*
X140556961Y-107480315D01*
X140511206Y-107427511D01*
X140500000Y-107376000D01*
X140500000Y-105265968D01*
X140519685Y-105198929D01*
X140572489Y-105153174D01*
X140641647Y-105143230D01*
X140660883Y-105147581D01*
G37*
%TD.AperFunction*%
%TD*%
M02*
