%TF.GenerationSoftware,KiCad,Pcbnew,9.0.6*%
%TF.CreationDate,2026-05-28T20:55:30-07:00*%
%TF.ProjectId,power_board_v01,706f7765-725f-4626-9f61-72645f763031,rev?*%
%TF.SameCoordinates,Original*%
%TF.FileFunction,Legend,Top*%
%TF.FilePolarity,Positive*%
%FSLAX46Y46*%
G04 Gerber Fmt 4.6, Leading zero omitted, Abs format (unit mm)*
G04 Created by KiCad (PCBNEW 9.0.6) date 2026-05-28 20:55:30*
%MOMM*%
%LPD*%
G01*
G04 APERTURE LIST*
%ADD10C,0.150000*%
%ADD11C,0.120000*%
G04 APERTURE END LIST*
D10*
X158761905Y-99954819D02*
X158761905Y-98954819D01*
X158761905Y-98954819D02*
X159142857Y-98954819D01*
X159142857Y-98954819D02*
X159238095Y-99002438D01*
X159238095Y-99002438D02*
X159285714Y-99050057D01*
X159285714Y-99050057D02*
X159333333Y-99145295D01*
X159333333Y-99145295D02*
X159333333Y-99288152D01*
X159333333Y-99288152D02*
X159285714Y-99383390D01*
X159285714Y-99383390D02*
X159238095Y-99431009D01*
X159238095Y-99431009D02*
X159142857Y-99478628D01*
X159142857Y-99478628D02*
X158761905Y-99478628D01*
X159666667Y-98954819D02*
X160285714Y-98954819D01*
X160285714Y-98954819D02*
X159952381Y-99335771D01*
X159952381Y-99335771D02*
X160095238Y-99335771D01*
X160095238Y-99335771D02*
X160190476Y-99383390D01*
X160190476Y-99383390D02*
X160238095Y-99431009D01*
X160238095Y-99431009D02*
X160285714Y-99526247D01*
X160285714Y-99526247D02*
X160285714Y-99764342D01*
X160285714Y-99764342D02*
X160238095Y-99859580D01*
X160238095Y-99859580D02*
X160190476Y-99907200D01*
X160190476Y-99907200D02*
X160095238Y-99954819D01*
X160095238Y-99954819D02*
X159809524Y-99954819D01*
X159809524Y-99954819D02*
X159714286Y-99907200D01*
X159714286Y-99907200D02*
X159666667Y-99859580D01*
X158761905Y-85454819D02*
X158761905Y-84454819D01*
X158761905Y-84454819D02*
X159142857Y-84454819D01*
X159142857Y-84454819D02*
X159238095Y-84502438D01*
X159238095Y-84502438D02*
X159285714Y-84550057D01*
X159285714Y-84550057D02*
X159333333Y-84645295D01*
X159333333Y-84645295D02*
X159333333Y-84788152D01*
X159333333Y-84788152D02*
X159285714Y-84883390D01*
X159285714Y-84883390D02*
X159238095Y-84931009D01*
X159238095Y-84931009D02*
X159142857Y-84978628D01*
X159142857Y-84978628D02*
X158761905Y-84978628D01*
X159714286Y-84550057D02*
X159761905Y-84502438D01*
X159761905Y-84502438D02*
X159857143Y-84454819D01*
X159857143Y-84454819D02*
X160095238Y-84454819D01*
X160095238Y-84454819D02*
X160190476Y-84502438D01*
X160190476Y-84502438D02*
X160238095Y-84550057D01*
X160238095Y-84550057D02*
X160285714Y-84645295D01*
X160285714Y-84645295D02*
X160285714Y-84740533D01*
X160285714Y-84740533D02*
X160238095Y-84883390D01*
X160238095Y-84883390D02*
X159666667Y-85454819D01*
X159666667Y-85454819D02*
X160285714Y-85454819D01*
X158761905Y-71454819D02*
X158761905Y-70454819D01*
X158761905Y-70454819D02*
X159142857Y-70454819D01*
X159142857Y-70454819D02*
X159238095Y-70502438D01*
X159238095Y-70502438D02*
X159285714Y-70550057D01*
X159285714Y-70550057D02*
X159333333Y-70645295D01*
X159333333Y-70645295D02*
X159333333Y-70788152D01*
X159333333Y-70788152D02*
X159285714Y-70883390D01*
X159285714Y-70883390D02*
X159238095Y-70931009D01*
X159238095Y-70931009D02*
X159142857Y-70978628D01*
X159142857Y-70978628D02*
X158761905Y-70978628D01*
X160285714Y-71454819D02*
X159714286Y-71454819D01*
X160000000Y-71454819D02*
X160000000Y-70454819D01*
X160000000Y-70454819D02*
X159904762Y-70597676D01*
X159904762Y-70597676D02*
X159809524Y-70692914D01*
X159809524Y-70692914D02*
X159714286Y-70740533D01*
X134454819Y-82333333D02*
X135169104Y-82333333D01*
X135169104Y-82333333D02*
X135311961Y-82380952D01*
X135311961Y-82380952D02*
X135407200Y-82476190D01*
X135407200Y-82476190D02*
X135454819Y-82619047D01*
X135454819Y-82619047D02*
X135454819Y-82714285D01*
X134883390Y-81714285D02*
X134835771Y-81809523D01*
X134835771Y-81809523D02*
X134788152Y-81857142D01*
X134788152Y-81857142D02*
X134692914Y-81904761D01*
X134692914Y-81904761D02*
X134645295Y-81904761D01*
X134645295Y-81904761D02*
X134550057Y-81857142D01*
X134550057Y-81857142D02*
X134502438Y-81809523D01*
X134502438Y-81809523D02*
X134454819Y-81714285D01*
X134454819Y-81714285D02*
X134454819Y-81523809D01*
X134454819Y-81523809D02*
X134502438Y-81428571D01*
X134502438Y-81428571D02*
X134550057Y-81380952D01*
X134550057Y-81380952D02*
X134645295Y-81333333D01*
X134645295Y-81333333D02*
X134692914Y-81333333D01*
X134692914Y-81333333D02*
X134788152Y-81380952D01*
X134788152Y-81380952D02*
X134835771Y-81428571D01*
X134835771Y-81428571D02*
X134883390Y-81523809D01*
X134883390Y-81523809D02*
X134883390Y-81714285D01*
X134883390Y-81714285D02*
X134931009Y-81809523D01*
X134931009Y-81809523D02*
X134978628Y-81857142D01*
X134978628Y-81857142D02*
X135073866Y-81904761D01*
X135073866Y-81904761D02*
X135264342Y-81904761D01*
X135264342Y-81904761D02*
X135359580Y-81857142D01*
X135359580Y-81857142D02*
X135407200Y-81809523D01*
X135407200Y-81809523D02*
X135454819Y-81714285D01*
X135454819Y-81714285D02*
X135454819Y-81523809D01*
X135454819Y-81523809D02*
X135407200Y-81428571D01*
X135407200Y-81428571D02*
X135359580Y-81380952D01*
X135359580Y-81380952D02*
X135264342Y-81333333D01*
X135264342Y-81333333D02*
X135073866Y-81333333D01*
X135073866Y-81333333D02*
X134978628Y-81380952D01*
X134978628Y-81380952D02*
X134931009Y-81428571D01*
X134931009Y-81428571D02*
X134883390Y-81523809D01*
X134954819Y-96333333D02*
X135669104Y-96333333D01*
X135669104Y-96333333D02*
X135811961Y-96380952D01*
X135811961Y-96380952D02*
X135907200Y-96476190D01*
X135907200Y-96476190D02*
X135954819Y-96619047D01*
X135954819Y-96619047D02*
X135954819Y-96714285D01*
X135050057Y-95904761D02*
X135002438Y-95857142D01*
X135002438Y-95857142D02*
X134954819Y-95761904D01*
X134954819Y-95761904D02*
X134954819Y-95523809D01*
X134954819Y-95523809D02*
X135002438Y-95428571D01*
X135002438Y-95428571D02*
X135050057Y-95380952D01*
X135050057Y-95380952D02*
X135145295Y-95333333D01*
X135145295Y-95333333D02*
X135240533Y-95333333D01*
X135240533Y-95333333D02*
X135383390Y-95380952D01*
X135383390Y-95380952D02*
X135954819Y-95952380D01*
X135954819Y-95952380D02*
X135954819Y-95333333D01*
X159333333Y-112454819D02*
X159000000Y-111978628D01*
X158761905Y-112454819D02*
X158761905Y-111454819D01*
X158761905Y-111454819D02*
X159142857Y-111454819D01*
X159142857Y-111454819D02*
X159238095Y-111502438D01*
X159238095Y-111502438D02*
X159285714Y-111550057D01*
X159285714Y-111550057D02*
X159333333Y-111645295D01*
X159333333Y-111645295D02*
X159333333Y-111788152D01*
X159333333Y-111788152D02*
X159285714Y-111883390D01*
X159285714Y-111883390D02*
X159238095Y-111931009D01*
X159238095Y-111931009D02*
X159142857Y-111978628D01*
X159142857Y-111978628D02*
X158761905Y-111978628D01*
X159666667Y-111454819D02*
X160285714Y-111454819D01*
X160285714Y-111454819D02*
X159952381Y-111835771D01*
X159952381Y-111835771D02*
X160095238Y-111835771D01*
X160095238Y-111835771D02*
X160190476Y-111883390D01*
X160190476Y-111883390D02*
X160238095Y-111931009D01*
X160238095Y-111931009D02*
X160285714Y-112026247D01*
X160285714Y-112026247D02*
X160285714Y-112264342D01*
X160285714Y-112264342D02*
X160238095Y-112359580D01*
X160238095Y-112359580D02*
X160190476Y-112407200D01*
X160190476Y-112407200D02*
X160095238Y-112454819D01*
X160095238Y-112454819D02*
X159809524Y-112454819D01*
X159809524Y-112454819D02*
X159714286Y-112407200D01*
X159714286Y-112407200D02*
X159666667Y-112359580D01*
X159333333Y-93954819D02*
X159000000Y-93478628D01*
X158761905Y-93954819D02*
X158761905Y-92954819D01*
X158761905Y-92954819D02*
X159142857Y-92954819D01*
X159142857Y-92954819D02*
X159238095Y-93002438D01*
X159238095Y-93002438D02*
X159285714Y-93050057D01*
X159285714Y-93050057D02*
X159333333Y-93145295D01*
X159333333Y-93145295D02*
X159333333Y-93288152D01*
X159333333Y-93288152D02*
X159285714Y-93383390D01*
X159285714Y-93383390D02*
X159238095Y-93431009D01*
X159238095Y-93431009D02*
X159142857Y-93478628D01*
X159142857Y-93478628D02*
X158761905Y-93478628D01*
X159714286Y-93050057D02*
X159761905Y-93002438D01*
X159761905Y-93002438D02*
X159857143Y-92954819D01*
X159857143Y-92954819D02*
X160095238Y-92954819D01*
X160095238Y-92954819D02*
X160190476Y-93002438D01*
X160190476Y-93002438D02*
X160238095Y-93050057D01*
X160238095Y-93050057D02*
X160285714Y-93145295D01*
X160285714Y-93145295D02*
X160285714Y-93240533D01*
X160285714Y-93240533D02*
X160238095Y-93383390D01*
X160238095Y-93383390D02*
X159666667Y-93954819D01*
X159666667Y-93954819D02*
X160285714Y-93954819D01*
X156833333Y-80454819D02*
X156500000Y-79978628D01*
X156261905Y-80454819D02*
X156261905Y-79454819D01*
X156261905Y-79454819D02*
X156642857Y-79454819D01*
X156642857Y-79454819D02*
X156738095Y-79502438D01*
X156738095Y-79502438D02*
X156785714Y-79550057D01*
X156785714Y-79550057D02*
X156833333Y-79645295D01*
X156833333Y-79645295D02*
X156833333Y-79788152D01*
X156833333Y-79788152D02*
X156785714Y-79883390D01*
X156785714Y-79883390D02*
X156738095Y-79931009D01*
X156738095Y-79931009D02*
X156642857Y-79978628D01*
X156642857Y-79978628D02*
X156261905Y-79978628D01*
X157785714Y-80454819D02*
X157214286Y-80454819D01*
X157500000Y-80454819D02*
X157500000Y-79454819D01*
X157500000Y-79454819D02*
X157404762Y-79597676D01*
X157404762Y-79597676D02*
X157309524Y-79692914D01*
X157309524Y-79692914D02*
X157214286Y-79740533D01*
X164333333Y-110159580D02*
X164285714Y-110207200D01*
X164285714Y-110207200D02*
X164142857Y-110254819D01*
X164142857Y-110254819D02*
X164047619Y-110254819D01*
X164047619Y-110254819D02*
X163904762Y-110207200D01*
X163904762Y-110207200D02*
X163809524Y-110111961D01*
X163809524Y-110111961D02*
X163761905Y-110016723D01*
X163761905Y-110016723D02*
X163714286Y-109826247D01*
X163714286Y-109826247D02*
X163714286Y-109683390D01*
X163714286Y-109683390D02*
X163761905Y-109492914D01*
X163761905Y-109492914D02*
X163809524Y-109397676D01*
X163809524Y-109397676D02*
X163904762Y-109302438D01*
X163904762Y-109302438D02*
X164047619Y-109254819D01*
X164047619Y-109254819D02*
X164142857Y-109254819D01*
X164142857Y-109254819D02*
X164285714Y-109302438D01*
X164285714Y-109302438D02*
X164333333Y-109350057D01*
X164666667Y-109254819D02*
X165333333Y-109254819D01*
X165333333Y-109254819D02*
X164904762Y-110254819D01*
X164333333Y-103659580D02*
X164285714Y-103707200D01*
X164285714Y-103707200D02*
X164142857Y-103754819D01*
X164142857Y-103754819D02*
X164047619Y-103754819D01*
X164047619Y-103754819D02*
X163904762Y-103707200D01*
X163904762Y-103707200D02*
X163809524Y-103611961D01*
X163809524Y-103611961D02*
X163761905Y-103516723D01*
X163761905Y-103516723D02*
X163714286Y-103326247D01*
X163714286Y-103326247D02*
X163714286Y-103183390D01*
X163714286Y-103183390D02*
X163761905Y-102992914D01*
X163761905Y-102992914D02*
X163809524Y-102897676D01*
X163809524Y-102897676D02*
X163904762Y-102802438D01*
X163904762Y-102802438D02*
X164047619Y-102754819D01*
X164047619Y-102754819D02*
X164142857Y-102754819D01*
X164142857Y-102754819D02*
X164285714Y-102802438D01*
X164285714Y-102802438D02*
X164333333Y-102850057D01*
X165190476Y-102754819D02*
X165000000Y-102754819D01*
X165000000Y-102754819D02*
X164904762Y-102802438D01*
X164904762Y-102802438D02*
X164857143Y-102850057D01*
X164857143Y-102850057D02*
X164761905Y-102992914D01*
X164761905Y-102992914D02*
X164714286Y-103183390D01*
X164714286Y-103183390D02*
X164714286Y-103564342D01*
X164714286Y-103564342D02*
X164761905Y-103659580D01*
X164761905Y-103659580D02*
X164809524Y-103707200D01*
X164809524Y-103707200D02*
X164904762Y-103754819D01*
X164904762Y-103754819D02*
X165095238Y-103754819D01*
X165095238Y-103754819D02*
X165190476Y-103707200D01*
X165190476Y-103707200D02*
X165238095Y-103659580D01*
X165238095Y-103659580D02*
X165285714Y-103564342D01*
X165285714Y-103564342D02*
X165285714Y-103326247D01*
X165285714Y-103326247D02*
X165238095Y-103231009D01*
X165238095Y-103231009D02*
X165190476Y-103183390D01*
X165190476Y-103183390D02*
X165095238Y-103135771D01*
X165095238Y-103135771D02*
X164904762Y-103135771D01*
X164904762Y-103135771D02*
X164809524Y-103183390D01*
X164809524Y-103183390D02*
X164761905Y-103231009D01*
X164761905Y-103231009D02*
X164714286Y-103326247D01*
X164333333Y-97159580D02*
X164285714Y-97207200D01*
X164285714Y-97207200D02*
X164142857Y-97254819D01*
X164142857Y-97254819D02*
X164047619Y-97254819D01*
X164047619Y-97254819D02*
X163904762Y-97207200D01*
X163904762Y-97207200D02*
X163809524Y-97111961D01*
X163809524Y-97111961D02*
X163761905Y-97016723D01*
X163761905Y-97016723D02*
X163714286Y-96826247D01*
X163714286Y-96826247D02*
X163714286Y-96683390D01*
X163714286Y-96683390D02*
X163761905Y-96492914D01*
X163761905Y-96492914D02*
X163809524Y-96397676D01*
X163809524Y-96397676D02*
X163904762Y-96302438D01*
X163904762Y-96302438D02*
X164047619Y-96254819D01*
X164047619Y-96254819D02*
X164142857Y-96254819D01*
X164142857Y-96254819D02*
X164285714Y-96302438D01*
X164285714Y-96302438D02*
X164333333Y-96350057D01*
X165238095Y-96254819D02*
X164761905Y-96254819D01*
X164761905Y-96254819D02*
X164714286Y-96731009D01*
X164714286Y-96731009D02*
X164761905Y-96683390D01*
X164761905Y-96683390D02*
X164857143Y-96635771D01*
X164857143Y-96635771D02*
X165095238Y-96635771D01*
X165095238Y-96635771D02*
X165190476Y-96683390D01*
X165190476Y-96683390D02*
X165238095Y-96731009D01*
X165238095Y-96731009D02*
X165285714Y-96826247D01*
X165285714Y-96826247D02*
X165285714Y-97064342D01*
X165285714Y-97064342D02*
X165238095Y-97159580D01*
X165238095Y-97159580D02*
X165190476Y-97207200D01*
X165190476Y-97207200D02*
X165095238Y-97254819D01*
X165095238Y-97254819D02*
X164857143Y-97254819D01*
X164857143Y-97254819D02*
X164761905Y-97207200D01*
X164761905Y-97207200D02*
X164714286Y-97159580D01*
X164333333Y-90684580D02*
X164285714Y-90732200D01*
X164285714Y-90732200D02*
X164142857Y-90779819D01*
X164142857Y-90779819D02*
X164047619Y-90779819D01*
X164047619Y-90779819D02*
X163904762Y-90732200D01*
X163904762Y-90732200D02*
X163809524Y-90636961D01*
X163809524Y-90636961D02*
X163761905Y-90541723D01*
X163761905Y-90541723D02*
X163714286Y-90351247D01*
X163714286Y-90351247D02*
X163714286Y-90208390D01*
X163714286Y-90208390D02*
X163761905Y-90017914D01*
X163761905Y-90017914D02*
X163809524Y-89922676D01*
X163809524Y-89922676D02*
X163904762Y-89827438D01*
X163904762Y-89827438D02*
X164047619Y-89779819D01*
X164047619Y-89779819D02*
X164142857Y-89779819D01*
X164142857Y-89779819D02*
X164285714Y-89827438D01*
X164285714Y-89827438D02*
X164333333Y-89875057D01*
X165190476Y-90113152D02*
X165190476Y-90779819D01*
X164952381Y-89732200D02*
X164714286Y-90446485D01*
X164714286Y-90446485D02*
X165333333Y-90446485D01*
X164333333Y-84159580D02*
X164285714Y-84207200D01*
X164285714Y-84207200D02*
X164142857Y-84254819D01*
X164142857Y-84254819D02*
X164047619Y-84254819D01*
X164047619Y-84254819D02*
X163904762Y-84207200D01*
X163904762Y-84207200D02*
X163809524Y-84111961D01*
X163809524Y-84111961D02*
X163761905Y-84016723D01*
X163761905Y-84016723D02*
X163714286Y-83826247D01*
X163714286Y-83826247D02*
X163714286Y-83683390D01*
X163714286Y-83683390D02*
X163761905Y-83492914D01*
X163761905Y-83492914D02*
X163809524Y-83397676D01*
X163809524Y-83397676D02*
X163904762Y-83302438D01*
X163904762Y-83302438D02*
X164047619Y-83254819D01*
X164047619Y-83254819D02*
X164142857Y-83254819D01*
X164142857Y-83254819D02*
X164285714Y-83302438D01*
X164285714Y-83302438D02*
X164333333Y-83350057D01*
X164666667Y-83254819D02*
X165285714Y-83254819D01*
X165285714Y-83254819D02*
X164952381Y-83635771D01*
X164952381Y-83635771D02*
X165095238Y-83635771D01*
X165095238Y-83635771D02*
X165190476Y-83683390D01*
X165190476Y-83683390D02*
X165238095Y-83731009D01*
X165238095Y-83731009D02*
X165285714Y-83826247D01*
X165285714Y-83826247D02*
X165285714Y-84064342D01*
X165285714Y-84064342D02*
X165238095Y-84159580D01*
X165238095Y-84159580D02*
X165190476Y-84207200D01*
X165190476Y-84207200D02*
X165095238Y-84254819D01*
X165095238Y-84254819D02*
X164809524Y-84254819D01*
X164809524Y-84254819D02*
X164714286Y-84207200D01*
X164714286Y-84207200D02*
X164666667Y-84159580D01*
X164333333Y-77684580D02*
X164285714Y-77732200D01*
X164285714Y-77732200D02*
X164142857Y-77779819D01*
X164142857Y-77779819D02*
X164047619Y-77779819D01*
X164047619Y-77779819D02*
X163904762Y-77732200D01*
X163904762Y-77732200D02*
X163809524Y-77636961D01*
X163809524Y-77636961D02*
X163761905Y-77541723D01*
X163761905Y-77541723D02*
X163714286Y-77351247D01*
X163714286Y-77351247D02*
X163714286Y-77208390D01*
X163714286Y-77208390D02*
X163761905Y-77017914D01*
X163761905Y-77017914D02*
X163809524Y-76922676D01*
X163809524Y-76922676D02*
X163904762Y-76827438D01*
X163904762Y-76827438D02*
X164047619Y-76779819D01*
X164047619Y-76779819D02*
X164142857Y-76779819D01*
X164142857Y-76779819D02*
X164285714Y-76827438D01*
X164285714Y-76827438D02*
X164333333Y-76875057D01*
X164714286Y-76875057D02*
X164761905Y-76827438D01*
X164761905Y-76827438D02*
X164857143Y-76779819D01*
X164857143Y-76779819D02*
X165095238Y-76779819D01*
X165095238Y-76779819D02*
X165190476Y-76827438D01*
X165190476Y-76827438D02*
X165238095Y-76875057D01*
X165238095Y-76875057D02*
X165285714Y-76970295D01*
X165285714Y-76970295D02*
X165285714Y-77065533D01*
X165285714Y-77065533D02*
X165238095Y-77208390D01*
X165238095Y-77208390D02*
X164666667Y-77779819D01*
X164666667Y-77779819D02*
X165285714Y-77779819D01*
X164333333Y-71184580D02*
X164285714Y-71232200D01*
X164285714Y-71232200D02*
X164142857Y-71279819D01*
X164142857Y-71279819D02*
X164047619Y-71279819D01*
X164047619Y-71279819D02*
X163904762Y-71232200D01*
X163904762Y-71232200D02*
X163809524Y-71136961D01*
X163809524Y-71136961D02*
X163761905Y-71041723D01*
X163761905Y-71041723D02*
X163714286Y-70851247D01*
X163714286Y-70851247D02*
X163714286Y-70708390D01*
X163714286Y-70708390D02*
X163761905Y-70517914D01*
X163761905Y-70517914D02*
X163809524Y-70422676D01*
X163809524Y-70422676D02*
X163904762Y-70327438D01*
X163904762Y-70327438D02*
X164047619Y-70279819D01*
X164047619Y-70279819D02*
X164142857Y-70279819D01*
X164142857Y-70279819D02*
X164285714Y-70327438D01*
X164285714Y-70327438D02*
X164333333Y-70375057D01*
X165285714Y-71279819D02*
X164714286Y-71279819D01*
X165000000Y-71279819D02*
X165000000Y-70279819D01*
X165000000Y-70279819D02*
X164904762Y-70422676D01*
X164904762Y-70422676D02*
X164809524Y-70517914D01*
X164809524Y-70517914D02*
X164714286Y-70565533D01*
X141166666Y-59454819D02*
X141166666Y-60169104D01*
X141166666Y-60169104D02*
X141119047Y-60311961D01*
X141119047Y-60311961D02*
X141023809Y-60407200D01*
X141023809Y-60407200D02*
X140880952Y-60454819D01*
X140880952Y-60454819D02*
X140785714Y-60454819D01*
X141547619Y-59454819D02*
X142214285Y-59454819D01*
X142214285Y-59454819D02*
X141785714Y-60454819D01*
X153928571Y-65114700D02*
X155071429Y-65114700D01*
X154500000Y-65686128D02*
X154500000Y-64543271D01*
X142928571Y-65114700D02*
X144071429Y-65114700D01*
X157166666Y-116454819D02*
X157166666Y-117169104D01*
X157166666Y-117169104D02*
X157119047Y-117311961D01*
X157119047Y-117311961D02*
X157023809Y-117407200D01*
X157023809Y-117407200D02*
X156880952Y-117454819D01*
X156880952Y-117454819D02*
X156785714Y-117454819D01*
X158071428Y-116454819D02*
X157880952Y-116454819D01*
X157880952Y-116454819D02*
X157785714Y-116502438D01*
X157785714Y-116502438D02*
X157738095Y-116550057D01*
X157738095Y-116550057D02*
X157642857Y-116692914D01*
X157642857Y-116692914D02*
X157595238Y-116883390D01*
X157595238Y-116883390D02*
X157595238Y-117264342D01*
X157595238Y-117264342D02*
X157642857Y-117359580D01*
X157642857Y-117359580D02*
X157690476Y-117407200D01*
X157690476Y-117407200D02*
X157785714Y-117454819D01*
X157785714Y-117454819D02*
X157976190Y-117454819D01*
X157976190Y-117454819D02*
X158071428Y-117407200D01*
X158071428Y-117407200D02*
X158119047Y-117359580D01*
X158119047Y-117359580D02*
X158166666Y-117264342D01*
X158166666Y-117264342D02*
X158166666Y-117026247D01*
X158166666Y-117026247D02*
X158119047Y-116931009D01*
X158119047Y-116931009D02*
X158071428Y-116883390D01*
X158071428Y-116883390D02*
X157976190Y-116835771D01*
X157976190Y-116835771D02*
X157785714Y-116835771D01*
X157785714Y-116835771D02*
X157690476Y-116883390D01*
X157690476Y-116883390D02*
X157642857Y-116931009D01*
X157642857Y-116931009D02*
X157595238Y-117026247D01*
X143428571Y-112114700D02*
X144571429Y-112114700D01*
X144000000Y-112686128D02*
X144000000Y-111543271D01*
X154428571Y-112114700D02*
X155571429Y-112114700D01*
X154904761Y-109050057D02*
X154809523Y-109002438D01*
X154809523Y-109002438D02*
X154714285Y-108907200D01*
X154714285Y-108907200D02*
X154571428Y-108764342D01*
X154571428Y-108764342D02*
X154476190Y-108716723D01*
X154476190Y-108716723D02*
X154380952Y-108716723D01*
X154428571Y-108954819D02*
X154333333Y-108907200D01*
X154333333Y-108907200D02*
X154238095Y-108811961D01*
X154238095Y-108811961D02*
X154190476Y-108621485D01*
X154190476Y-108621485D02*
X154190476Y-108288152D01*
X154190476Y-108288152D02*
X154238095Y-108097676D01*
X154238095Y-108097676D02*
X154333333Y-108002438D01*
X154333333Y-108002438D02*
X154428571Y-107954819D01*
X154428571Y-107954819D02*
X154619047Y-107954819D01*
X154619047Y-107954819D02*
X154714285Y-108002438D01*
X154714285Y-108002438D02*
X154809523Y-108097676D01*
X154809523Y-108097676D02*
X154857142Y-108288152D01*
X154857142Y-108288152D02*
X154857142Y-108621485D01*
X154857142Y-108621485D02*
X154809523Y-108811961D01*
X154809523Y-108811961D02*
X154714285Y-108907200D01*
X154714285Y-108907200D02*
X154619047Y-108954819D01*
X154619047Y-108954819D02*
X154428571Y-108954819D01*
X155190476Y-107954819D02*
X155809523Y-107954819D01*
X155809523Y-107954819D02*
X155476190Y-108335771D01*
X155476190Y-108335771D02*
X155619047Y-108335771D01*
X155619047Y-108335771D02*
X155714285Y-108383390D01*
X155714285Y-108383390D02*
X155761904Y-108431009D01*
X155761904Y-108431009D02*
X155809523Y-108526247D01*
X155809523Y-108526247D02*
X155809523Y-108764342D01*
X155809523Y-108764342D02*
X155761904Y-108859580D01*
X155761904Y-108859580D02*
X155714285Y-108907200D01*
X155714285Y-108907200D02*
X155619047Y-108954819D01*
X155619047Y-108954819D02*
X155333333Y-108954819D01*
X155333333Y-108954819D02*
X155238095Y-108907200D01*
X155238095Y-108907200D02*
X155190476Y-108859580D01*
X154404761Y-81550057D02*
X154309523Y-81502438D01*
X154309523Y-81502438D02*
X154214285Y-81407200D01*
X154214285Y-81407200D02*
X154071428Y-81264342D01*
X154071428Y-81264342D02*
X153976190Y-81216723D01*
X153976190Y-81216723D02*
X153880952Y-81216723D01*
X153928571Y-81454819D02*
X153833333Y-81407200D01*
X153833333Y-81407200D02*
X153738095Y-81311961D01*
X153738095Y-81311961D02*
X153690476Y-81121485D01*
X153690476Y-81121485D02*
X153690476Y-80788152D01*
X153690476Y-80788152D02*
X153738095Y-80597676D01*
X153738095Y-80597676D02*
X153833333Y-80502438D01*
X153833333Y-80502438D02*
X153928571Y-80454819D01*
X153928571Y-80454819D02*
X154119047Y-80454819D01*
X154119047Y-80454819D02*
X154214285Y-80502438D01*
X154214285Y-80502438D02*
X154309523Y-80597676D01*
X154309523Y-80597676D02*
X154357142Y-80788152D01*
X154357142Y-80788152D02*
X154357142Y-81121485D01*
X154357142Y-81121485D02*
X154309523Y-81311961D01*
X154309523Y-81311961D02*
X154214285Y-81407200D01*
X154214285Y-81407200D02*
X154119047Y-81454819D01*
X154119047Y-81454819D02*
X153928571Y-81454819D01*
X155309523Y-81454819D02*
X154738095Y-81454819D01*
X155023809Y-81454819D02*
X155023809Y-80454819D01*
X155023809Y-80454819D02*
X154928571Y-80597676D01*
X154928571Y-80597676D02*
X154833333Y-80692914D01*
X154833333Y-80692914D02*
X154738095Y-80740533D01*
X154404761Y-95050057D02*
X154309523Y-95002438D01*
X154309523Y-95002438D02*
X154214285Y-94907200D01*
X154214285Y-94907200D02*
X154071428Y-94764342D01*
X154071428Y-94764342D02*
X153976190Y-94716723D01*
X153976190Y-94716723D02*
X153880952Y-94716723D01*
X153928571Y-94954819D02*
X153833333Y-94907200D01*
X153833333Y-94907200D02*
X153738095Y-94811961D01*
X153738095Y-94811961D02*
X153690476Y-94621485D01*
X153690476Y-94621485D02*
X153690476Y-94288152D01*
X153690476Y-94288152D02*
X153738095Y-94097676D01*
X153738095Y-94097676D02*
X153833333Y-94002438D01*
X153833333Y-94002438D02*
X153928571Y-93954819D01*
X153928571Y-93954819D02*
X154119047Y-93954819D01*
X154119047Y-93954819D02*
X154214285Y-94002438D01*
X154214285Y-94002438D02*
X154309523Y-94097676D01*
X154309523Y-94097676D02*
X154357142Y-94288152D01*
X154357142Y-94288152D02*
X154357142Y-94621485D01*
X154357142Y-94621485D02*
X154309523Y-94811961D01*
X154309523Y-94811961D02*
X154214285Y-94907200D01*
X154214285Y-94907200D02*
X154119047Y-94954819D01*
X154119047Y-94954819D02*
X153928571Y-94954819D01*
X154738095Y-94050057D02*
X154785714Y-94002438D01*
X154785714Y-94002438D02*
X154880952Y-93954819D01*
X154880952Y-93954819D02*
X155119047Y-93954819D01*
X155119047Y-93954819D02*
X155214285Y-94002438D01*
X155214285Y-94002438D02*
X155261904Y-94050057D01*
X155261904Y-94050057D02*
X155309523Y-94145295D01*
X155309523Y-94145295D02*
X155309523Y-94240533D01*
X155309523Y-94240533D02*
X155261904Y-94383390D01*
X155261904Y-94383390D02*
X154690476Y-94954819D01*
X154690476Y-94954819D02*
X155309523Y-94954819D01*
D11*
%TO.C,J2*%
X138000000Y-97290000D02*
X134000000Y-97290000D01*
X139030000Y-97580000D02*
X133010000Y-97580000D01*
X133010000Y-97580000D02*
X133010000Y-105420000D01*
X139030000Y-98160000D02*
X138430000Y-98160000D01*
X138430000Y-98160000D02*
X138430000Y-99760000D01*
X134010000Y-98960000D02*
X134540000Y-99210000D01*
X134010000Y-98960000D02*
X134010000Y-104040000D01*
X133010000Y-98960000D02*
X134010000Y-98960000D01*
X134540000Y-99210000D02*
X134540000Y-103790000D01*
X133010000Y-99210000D02*
X134010000Y-99210000D01*
X138430000Y-99760000D02*
X139030000Y-99760000D01*
X139030000Y-100700000D02*
X138430000Y-100700000D01*
X138430000Y-100700000D02*
X138430000Y-102300000D01*
X138430000Y-102300000D02*
X139030000Y-102300000D01*
X139030000Y-103240000D02*
X138430000Y-103240000D01*
X138430000Y-103240000D02*
X138430000Y-104840000D01*
X134540000Y-103790000D02*
X134010000Y-104040000D01*
X133010000Y-103790000D02*
X134010000Y-103790000D01*
X134010000Y-104040000D02*
X133010000Y-104040000D01*
X138430000Y-104840000D02*
X139030000Y-104840000D01*
X139030000Y-105420000D02*
X139030000Y-97580000D01*
X133010000Y-105420000D02*
X139030000Y-105420000D01*
%TO.C,R3*%
X159262742Y-108477500D02*
X159737258Y-108477500D01*
X159262742Y-109522500D02*
X159737258Y-109522500D01*
%TO.C,R2*%
X159262742Y-94477500D02*
X159737258Y-94477500D01*
X159262742Y-95522500D02*
X159737258Y-95522500D01*
%TO.C,R1*%
X159262742Y-79977500D02*
X159737258Y-79977500D01*
X159262742Y-81022500D02*
X159737258Y-81022500D01*
%TO.C,J1*%
X138000000Y-64710000D02*
X134000000Y-64710000D01*
X139030000Y-65000000D02*
X133010000Y-65000000D01*
X133010000Y-65000000D02*
X133010000Y-80460000D01*
X139030000Y-65580000D02*
X138430000Y-65580000D01*
X138430000Y-65580000D02*
X138430000Y-67180000D01*
X134010000Y-66380000D02*
X134540000Y-66630000D01*
X134010000Y-66380000D02*
X134010000Y-79080000D01*
X133010000Y-66380000D02*
X134010000Y-66380000D01*
X134540000Y-66630000D02*
X134540000Y-78830000D01*
X133010000Y-66630000D02*
X134010000Y-66630000D01*
X138430000Y-67180000D02*
X139030000Y-67180000D01*
X139030000Y-68120000D02*
X138430000Y-68120000D01*
X138430000Y-68120000D02*
X138430000Y-69720000D01*
X138430000Y-69720000D02*
X139030000Y-69720000D01*
X139030000Y-70660000D02*
X138430000Y-70660000D01*
X138430000Y-70660000D02*
X138430000Y-72260000D01*
X138430000Y-72260000D02*
X139030000Y-72260000D01*
X139030000Y-73200000D02*
X138430000Y-73200000D01*
X138430000Y-73200000D02*
X138430000Y-74800000D01*
X138430000Y-74800000D02*
X139030000Y-74800000D01*
X139030000Y-75740000D02*
X138430000Y-75740000D01*
X138430000Y-75740000D02*
X138430000Y-77340000D01*
X138430000Y-77340000D02*
X139030000Y-77340000D01*
X139030000Y-78280000D02*
X138430000Y-78280000D01*
X138430000Y-78280000D02*
X138430000Y-79880000D01*
X134540000Y-78830000D02*
X134010000Y-79080000D01*
X133010000Y-78830000D02*
X134010000Y-78830000D01*
X134010000Y-79080000D02*
X133010000Y-79080000D01*
X138430000Y-79880000D02*
X139030000Y-79880000D01*
X139030000Y-80460000D02*
X139030000Y-65000000D01*
X133010000Y-80460000D02*
X139030000Y-80460000D01*
%TO.C,C7*%
X165211252Y-108860000D02*
X163788748Y-108860000D01*
X165211252Y-106140000D02*
X163788748Y-106140000D01*
%TO.C,C6*%
X165211252Y-102360000D02*
X163788748Y-102360000D01*
X165211252Y-99640000D02*
X163788748Y-99640000D01*
%TO.C,C5*%
X165211252Y-95860000D02*
X163788748Y-95860000D01*
X165211252Y-93140000D02*
X163788748Y-93140000D01*
%TO.C,C4*%
X165211252Y-89385000D02*
X163788748Y-89385000D01*
X165211252Y-86665000D02*
X163788748Y-86665000D01*
%TO.C,C3*%
X165211252Y-82860000D02*
X163788748Y-82860000D01*
X165211252Y-80140000D02*
X163788748Y-80140000D01*
%TO.C,C2*%
X165211252Y-76385000D02*
X163788748Y-76385000D01*
X165211252Y-73665000D02*
X163788748Y-73665000D01*
%TO.C,C1*%
X165211252Y-69885000D02*
X163788748Y-69885000D01*
X165211252Y-67165000D02*
X163788748Y-67165000D01*
%TO.C,J7*%
X143240000Y-58890000D02*
X143940000Y-58890000D01*
X143240000Y-61110000D02*
X154760000Y-61110000D01*
X143940000Y-56840000D02*
X143940000Y-58890000D01*
X143940000Y-56840000D02*
X144470000Y-56840000D01*
X144470000Y-50840000D02*
X144470000Y-56840000D01*
X144470000Y-50840000D02*
X153500000Y-50840000D01*
X153530000Y-50840000D02*
X153530000Y-56840000D01*
X153530000Y-56840000D02*
X154060000Y-56840000D01*
X154060000Y-56840000D02*
X154060000Y-58890000D01*
X154060000Y-58890000D02*
X154760000Y-58890000D01*
X143178271Y-61096635D02*
G75*
G02*
X143350000Y-58890000I171730J1096635D01*
G01*
X154650000Y-58890000D02*
G75*
G02*
X154650000Y-61110000I0J-1110000D01*
G01*
%TO.C,J6*%
X155260000Y-118110000D02*
X154560000Y-118110000D01*
X155260000Y-115890000D02*
X143740000Y-115890000D01*
X154560000Y-120160000D02*
X154560000Y-118110000D01*
X154560000Y-120160000D02*
X154030000Y-120160000D01*
X154030000Y-126160000D02*
X154030000Y-120160000D01*
X154030000Y-126160000D02*
X145000000Y-126160000D01*
X144970000Y-126160000D02*
X144970000Y-120160000D01*
X144970000Y-120160000D02*
X144440000Y-120160000D01*
X144440000Y-120160000D02*
X144440000Y-118110000D01*
X144440000Y-118110000D02*
X143740000Y-118110000D01*
X155321729Y-115903365D02*
G75*
G02*
X155150000Y-118110000I-171730J-1096635D01*
G01*
X143850000Y-118110000D02*
G75*
G02*
X143850000Y-115890000I0J1110000D01*
G01*
%TO.C,Q3*%
X145750000Y-96525000D02*
X145750000Y-97215000D01*
X145750000Y-106925000D02*
X145750000Y-106235000D01*
X147115000Y-96525000D02*
X145750000Y-96525000D01*
X147115000Y-106925000D02*
X145750000Y-106925000D01*
X142925000Y-97255000D02*
X142585000Y-96785000D01*
X143265000Y-96785000D01*
X142925000Y-97255000D01*
G36*
X142925000Y-97255000D02*
G01*
X142585000Y-96785000D01*
X143265000Y-96785000D01*
X142925000Y-97255000D01*
G37*
%TO.C,Q1*%
X145750000Y-68525000D02*
X145750000Y-69215000D01*
X145750000Y-78925000D02*
X145750000Y-78235000D01*
X147115000Y-68525000D02*
X145750000Y-68525000D01*
X147115000Y-78925000D02*
X145750000Y-78925000D01*
X142925000Y-69255000D02*
X142585000Y-68785000D01*
X143265000Y-68785000D01*
X142925000Y-69255000D01*
G36*
X142925000Y-69255000D02*
G01*
X142585000Y-68785000D01*
X143265000Y-68785000D01*
X142925000Y-69255000D01*
G37*
%TO.C,Q2*%
X145750000Y-82525000D02*
X145750000Y-83215000D01*
X145750000Y-92925000D02*
X145750000Y-92235000D01*
X147115000Y-82525000D02*
X145750000Y-82525000D01*
X147115000Y-92925000D02*
X145750000Y-92925000D01*
X142925000Y-83255000D02*
X142585000Y-82785000D01*
X143265000Y-82785000D01*
X142925000Y-83255000D01*
G36*
X142925000Y-83255000D02*
G01*
X142585000Y-82785000D01*
X143265000Y-82785000D01*
X142925000Y-83255000D01*
G37*
%TD*%
M02*
