M48
; DRILL file {KiCad 9.0.6} date 2026-05-29T09:01:15-0700
; FORMAT={-:-/ absolute / metric / decimal}
; #@! TF.CreationDate,2026-05-29T09:01:15-07:00
; #@! TF.GenerationSoftware,Kicad,Pcbnew,9.0.6
; #@! TF.FileFunction,Plated,1,4,PTH
FMAT,2
METRIC
; #@! TA.AperFunction,Plated,PTH,ViaDrill
T1C0.300
; #@! TA.AperFunction,Plated,PTH,ComponentDrill
T2C1.000
; #@! TA.AperFunction,Plated,PTH,ComponentDrill
T3C1.190
; #@! TA.AperFunction,Plated,PTH,ComponentDrill
T4C1.600
; #@! TA.AperFunction,Plated,PTH,ComponentDrill
T5C1.900
; #@! TA.AperFunction,Plated,PTH,ComponentDrill
T6C2.150
%
G90
G05
T1
X138.5Y-104.5
X138.702Y-90.798
X139.0Y-69.38
X139.0Y-71.0
X139.0Y-76.0
X139.0Y-86.5
X139.5Y-103.0
X139.505Y-88.995
X140.0Y-85.0
X140.0Y-98.5
X140.0Y-100.0
X141.0Y-82.5
X141.0Y-93.0
X141.0Y-96.5
X141.0Y-107.0
X141.5Y-68.5
X141.5Y-79.0
X143.0Y-68.5
X143.0Y-79.0
X143.0Y-82.5
X143.0Y-93.0
X143.0Y-96.5
X143.0Y-107.0
X144.5Y-68.5
X144.5Y-79.0
X144.5Y-82.5
X144.5Y-93.0
X144.5Y-96.5
X144.5Y-107.0
X149.0Y-70.5
X149.0Y-72.5
X149.0Y-74.5
X149.0Y-76.5
X149.0Y-84.5
X149.0Y-86.5
X149.0Y-88.5
X149.0Y-90.5
X149.5Y-98.5
X149.5Y-100.5
X149.5Y-102.5
X149.5Y-104.5
X151.0Y-70.5
X151.0Y-72.5
X151.0Y-74.5
X151.0Y-76.5
X151.0Y-84.5
X151.0Y-86.5
X151.0Y-88.5
X151.0Y-90.5
X151.5Y-98.5
X151.5Y-100.5
X151.5Y-102.5
X151.5Y-104.5
X153.0Y-70.5
X153.0Y-72.5
X153.0Y-74.5
X153.0Y-76.5
X153.0Y-84.5
X153.0Y-86.5
X153.0Y-88.5
X153.0Y-90.5
X153.5Y-98.5
X153.5Y-100.5
X153.5Y-102.5
X153.5Y-104.5
X155.0Y-70.5
X155.0Y-72.5
X155.0Y-74.5
X155.0Y-76.5
X155.0Y-84.5
X155.0Y-86.5
X155.0Y-88.5
X155.0Y-90.5
X155.5Y-98.5
X155.5Y-100.5
X155.5Y-102.5
X155.5Y-104.5
X157.0Y-95.0
X157.0Y-109.0
X158.0Y-69.0
X158.0Y-70.5
X158.0Y-76.5
X158.0Y-78.5
X158.0Y-83.0
X158.0Y-84.5
X158.0Y-90.5
X158.0Y-92.5
X158.0Y-97.0
X158.0Y-99.0
X158.0Y-105.0
X158.0Y-106.5
X161.0Y-69.0
X161.0Y-70.5
X161.0Y-76.5
X161.0Y-78.5
X161.0Y-81.5
X161.0Y-83.0
X161.0Y-84.5
X161.0Y-90.5
X161.0Y-92.5
X161.0Y-94.0
X161.0Y-97.0
X161.0Y-99.0
X161.0Y-105.0
X161.0Y-106.5
X161.0Y-110.0
X163.0Y-71.0
X163.0Y-72.5
X163.0Y-77.5
X163.0Y-79.0
X163.0Y-84.0
X163.0Y-85.5
X163.0Y-90.5
X163.0Y-92.0
X163.0Y-97.0
X163.0Y-98.5
X163.0Y-103.5
X163.0Y-105.0
X166.0Y-71.0
X166.0Y-72.5
X166.0Y-77.5
X166.0Y-79.0
X166.0Y-84.0
X166.0Y-85.5
X166.0Y-90.5
X166.0Y-92.0
X166.0Y-97.0
X166.0Y-98.5
X166.0Y-103.5
X166.0Y-105.0
T2
X143.5Y-60.0
X144.0Y-117.0
X154.5Y-60.0
X155.0Y-117.0
T3
X136.0Y-66.38
X136.0Y-68.92
X136.0Y-71.46
X136.0Y-74.0
X136.0Y-76.54
X136.0Y-79.08
X136.0Y-98.96
X136.0Y-101.5
X136.0Y-104.04
T4
X159.5Y-73.5
X159.5Y-87.5
X159.5Y-102.0
T5
X146.5Y-65.0
X147.0Y-112.0
X151.5Y-65.0
X152.0Y-112.0
T6
X134.5Y-85.5
X134.5Y-91.5
M30
