%TF.GenerationSoftware,KiCad,Pcbnew,9.0.6*%
%TF.CreationDate,2026-05-28T20:55:30-07:00*%
%TF.ProjectId,power_board_v01,706f7765-725f-4626-9f61-72645f763031,rev?*%
%TF.SameCoordinates,Original*%
%TF.FileFunction,Soldermask,Top*%
%TF.FilePolarity,Negative*%
%FSLAX46Y46*%
G04 Gerber Fmt 4.6, Leading zero omitted, Abs format (unit mm)*
G04 Created by KiCad (PCBNEW 9.0.6) date 2026-05-28 20:55:30*
%MOMM*%
%LPD*%
G01*
G04 APERTURE LIST*
G04 Aperture macros list*
%AMRoundRect*
0 Rectangle with rounded corners*
0 $1 Rounding radius*
0 $2 $3 $4 $5 $6 $7 $8 $9 X,Y pos of 4 corners*
0 Add a 4 corners polygon primitive as box body*
4,1,4,$2,$3,$4,$5,$6,$7,$8,$9,$2,$3,0*
0 Add four circle primitives for the rounded corners*
1,1,$1+$1,$2,$3*
1,1,$1+$1,$4,$5*
1,1,$1+$1,$6,$7*
1,1,$1+$1,$8,$9*
0 Add four rect primitives between the rounded corners*
20,1,$1+$1,$2,$3,$4,$5,0*
20,1,$1+$1,$4,$5,$6,$7,0*
20,1,$1+$1,$6,$7,$8,$9,0*
20,1,$1+$1,$8,$9,$2,$3,0*%
G04 Aperture macros list end*
%ADD10RoundRect,0.250000X-1.050000X-1.050000X1.050000X-1.050000X1.050000X1.050000X-1.050000X1.050000X0*%
%ADD11RoundRect,0.250000X-1.325000X1.325000X-1.325000X-1.325000X1.325000X-1.325000X1.325000X1.325000X0*%
%ADD12C,3.150000*%
%ADD13RoundRect,0.250000X-0.845000X0.620000X-0.845000X-0.620000X0.845000X-0.620000X0.845000X0.620000X0*%
%ADD14O,2.190000X1.740000*%
%ADD15RoundRect,0.200000X-0.200000X-0.275000X0.200000X-0.275000X0.200000X0.275000X-0.200000X0.275000X0*%
%ADD16RoundRect,0.250000X0.325000X1.100000X-0.325000X1.100000X-0.325000X-1.100000X0.325000X-1.100000X0*%
%ADD17C,1.400000*%
%ADD18RoundRect,0.770000X-0.980000X-0.980000X0.980000X-0.980000X0.980000X0.980000X-0.980000X0.980000X0*%
%ADD19C,3.500000*%
%ADD20RoundRect,0.770000X0.980000X0.980000X-0.980000X0.980000X-0.980000X-0.980000X0.980000X-0.980000X0*%
%ADD21RoundRect,0.200000X-2.100000X-0.200000X2.100000X-0.200000X2.100000X0.200000X-2.100000X0.200000X0*%
%ADD22RoundRect,0.250002X-4.449998X-5.149998X4.449998X-5.149998X4.449998X5.149998X-4.449998X5.149998X0*%
G04 APERTURE END LIST*
D10*
%TO.C,P3*%
X159500000Y-102000000D03*
%TD*%
%TO.C,P2*%
X159500000Y-87500000D03*
%TD*%
%TO.C,P1*%
X159500000Y-73500000D03*
%TD*%
D11*
%TO.C,J8*%
X134500000Y-85500000D03*
D12*
X134500000Y-91500000D03*
%TD*%
D13*
%TO.C,J2*%
X136000000Y-98960000D03*
D14*
X136000000Y-101500000D03*
X136000000Y-104040000D03*
%TD*%
D15*
%TO.C,R3*%
X158675000Y-109000000D03*
X160325000Y-109000000D03*
%TD*%
%TO.C,R2*%
X158675000Y-95000000D03*
X160325000Y-95000000D03*
%TD*%
%TO.C,R1*%
X158675000Y-80500000D03*
X160325000Y-80500000D03*
%TD*%
D13*
%TO.C,J1*%
X136000000Y-66380000D03*
D14*
X136000000Y-68920000D03*
X136000000Y-71460000D03*
X136000000Y-74000000D03*
X136000000Y-76540000D03*
X136000000Y-79080000D03*
%TD*%
D16*
%TO.C,C7*%
X165975000Y-107500000D03*
X163025000Y-107500000D03*
%TD*%
%TO.C,C6*%
X165975000Y-101000000D03*
X163025000Y-101000000D03*
%TD*%
%TO.C,C5*%
X165975000Y-94500000D03*
X163025000Y-94500000D03*
%TD*%
%TO.C,C4*%
X165975000Y-88025000D03*
X163025000Y-88025000D03*
%TD*%
%TO.C,C3*%
X165975000Y-81500000D03*
X163025000Y-81500000D03*
%TD*%
%TO.C,C2*%
X165975000Y-75025000D03*
X163025000Y-75025000D03*
%TD*%
%TO.C,C1*%
X165975000Y-68525000D03*
X163025000Y-68525000D03*
%TD*%
D17*
%TO.C,J7*%
X143500000Y-60000000D03*
X154500000Y-60000000D03*
D18*
X146500000Y-65000000D03*
D19*
X151500000Y-65000000D03*
%TD*%
D17*
%TO.C,J6*%
X155000000Y-117000000D03*
X144000000Y-117000000D03*
D20*
X152000000Y-112000000D03*
D19*
X147000000Y-112000000D03*
%TD*%
D21*
%TO.C,Q3*%
X142925000Y-97915000D03*
X142925000Y-99185000D03*
X142925000Y-100455000D03*
X142925000Y-101725000D03*
X142925000Y-102995000D03*
X142925000Y-104265000D03*
X142925000Y-105535000D03*
D22*
X152075000Y-101725000D03*
%TD*%
D21*
%TO.C,Q1*%
X142925000Y-69915000D03*
X142925000Y-71185000D03*
X142925000Y-72455000D03*
X142925000Y-73725000D03*
X142925000Y-74995000D03*
X142925000Y-76265000D03*
X142925000Y-77535000D03*
D22*
X152075000Y-73725000D03*
%TD*%
D21*
%TO.C,Q2*%
X142925000Y-83915000D03*
X142925000Y-85185000D03*
X142925000Y-86455000D03*
X142925000Y-87725000D03*
X142925000Y-88995000D03*
X142925000Y-90265000D03*
X142925000Y-91535000D03*
D22*
X152075000Y-87725000D03*
%TD*%
M02*
